<?xml version="1.0" encoding="utf-8"?><svg viewBox="0 0 100 100" xmlns="http://www.w3.org/2000/svg" width="400px" height="400px" xmlns:xlink="http://www.w3.org/1999/xlink" style="width:100%;height:100%;animation-play-state:paused" ><g class="ldl-scale" style="transform-origin:50% 50% 0px;transform:rotate(0deg) scale(0.8);animation-play-state:paused" ><g style="animation-play-state:paused" ><path stroke-miterlimit="10" stroke-width="3.5" stroke="#333" fill="none" d="M51.7 56.3c-1.4-6.3-1.9-13.5 1.9-18.8 1.7-2.4 4.1-4.2 6.2-6.2 3.9-3.9 6.7-9.5 4.8-14.6-1.7-4.6-7-7.4-12.1-7.1-5.1.3-9.7 3.4-12.6 7.3" style="stroke:rgb(51, 51, 51);animation-play-state:paused" ></path>
<path stroke-miterlimit="10" stroke-width="3.5" stroke="#333" fill="#abbd81" d="M55.3 13.7c3.4 4.2 2.1 7.7-3.3 11.7s-9.3 4.3-12.7.1-2.1-7.7 3.3-11.7 9.3-4.3 12.7-.1z" style="stroke:rgb(51, 51, 51);fill:rgb(171, 189, 129);animation-play-state:paused" ></path>
<path stroke-miterlimit="10" stroke-linejoin="round" stroke-linecap="round" stroke-width="3.5" stroke="#000" opacity=".1" d="M55.3 13.7c-2.6-3.2-5.4-3.8-9-2.1.9.6 1.7 1.3 2.5 2.3 3.7 4.6 2.5 8.3-3.1 12.4-1 .8-2 1.4-2.9 1.9 2.6.9 5.5-.1 9.2-2.8 5.4-3.9 6.7-7.5 3.3-11.7z" style="animation-play-state:paused" ></path>
<path d="M44.3 23.3l6.7-5.1" stroke-miterlimit="10" stroke-linecap="round" stroke-width="3.5" stroke="#333" fill="none" style="stroke:rgb(51, 51, 51);animation-play-state:paused" ></path></g>
<g style="animation-play-state:paused" ><path stroke-miterlimit="10" stroke-width="3.5" stroke="#333" fill="#e0e0e0" d="M60.2 90.4H39.8c-7.4 0-13.4-6-13.4-13.4V62.3h47.3V77c-.1 7.4-6.1 13.4-13.5 13.4z" style="stroke:rgb(51, 51, 51);fill:rgb(230, 83, 67);animation-play-state:paused" ></path>
<path d="M33.4 73.1v-3.8" stroke-miterlimit="10" stroke-linecap="round" stroke-width="3.5" stroke="#333" fill="#e0e0e0" style="stroke:rgb(51, 51, 51);fill:rgb(230, 83, 67);animation-play-state:paused" ></path>
<path stroke-miterlimit="10" stroke-linecap="round" stroke-width="3.5" stroke="#333" fill="#e0e0e0" d="M33.5 78.6c0-.4-.1-.7-.1-1.1" style="stroke:rgb(51, 51, 51);fill:rgb(230, 83, 67);animation-play-state:paused" ></path>
<path stroke-miterlimit="10" stroke-width="3.5" stroke="#000" opacity=".1" d="M65 62.3H26.4v7.5H65v1.7c0 10.5-8.5 19-19 19h14.2c7.4 0 13.4-6 13.4-13.4V62.4H65z" style="animation-play-state:paused" ></path>
<path stroke-miterlimit="10" stroke-width="3.5" stroke="#333" fill="#e0e0e0" d="M75.9 64.2H24.1c-2.6 0-4.7-2.1-4.7-4.7v-3.8c0-2.6 2.1-4.7 4.7-4.7H76c2.6 0 4.7 2.1 4.7 4.7v3.8c-.1 2.6-2.2 4.7-4.8 4.7z" style="stroke:rgb(51, 51, 51);fill:rgb(230, 83, 67);animation-play-state:paused" ></path>
<path stroke-miterlimit="10" stroke-width="3.5" stroke="#000" opacity=".1" d="M75.9 51.1h-3.3v4.8c0 4.6-3.7 8.3-8.3 8.3h11.6c2.6 0 4.7-2.1 4.7-4.7v-3.8c0-2.5-2.1-4.6-4.7-4.6z" style="animation-play-state:paused" ></path></g>
<metadata xmlns:d="https://loading.io/stock/" style="animation-play-state:paused" ><d:name style="animation-play-state:paused" >sprout</d:name>


<d:tags style="animation-play-state:paused" >sprout,offshoot,seed,grow,newbie,startup,begin,spring up,bud,plant,pot</d:tags>


<d:license style="animation-play-state:paused" >by</d:license>


<d:slug style="animation-play-state:paused" >691a0v</d:slug></metadata></g><!-- generated by https://loading.io/ --></svg>