<?xml version="1.0"?>
<svg xmlns="http://www.w3.org/2000/svg" xmlns:xlink="http://www.w3.org/1999/xlink" xmlns:svgjs="http://svgjs.com/svgjs" version="1.1" width="512" height="512" x="0" y="0" viewBox="0 0 512 512" style="enable-background:new 0 0 512 512" xml:space="preserve" class=""><g>
<polygon xmlns="http://www.w3.org/2000/svg" style="" points="0,415 30,415 30,310 96,310 104.029,220 0,220 " fill="#363636" data-original="#0e61c4" class=""/>
<polygon xmlns="http://www.w3.org/2000/svg" style="" points="407.971,220 416,310 482,310 482,415 512,415 512,220 " fill="#353536" data-original="#0c4ead" class=""/>
<path xmlns="http://www.w3.org/2000/svg" style="" d="M316,220H196V120h120V220z" fill="#363636" data-original="#0e61c4" class=""/>
<path xmlns="http://www.w3.org/2000/svg" style="" d="M316,220h-60V120h60V220z" fill="#353536" data-original="#0c4ead" class=""/>
<g xmlns="http://www.w3.org/2000/svg">
	<path style="" d="M431,150H81V45c0-24.813,20.187-45,45-45h260c24.813,0,45,20.187,45,45V150z" fill="#464646" data-original="#e8596e" class=""/>
	<path style="" d="M356,512H156c-41.355,0-75-33.645-75-75V265c0-41.355,33.645-75,75-75h200c41.355,0,75,33.645,75,75   v172C431,478.355,397.355,512,356,512z" fill="#464646" data-original="#e8596e" class=""/>
</g>
<g xmlns="http://www.w3.org/2000/svg">
	<path style="" d="M386,0H256v150h175V45C431,20.187,410.813,0,386,0z" fill="#464646" data-original="#db2e44" class=""/>
	<path style="" d="M356,190H256v322h100c41.355,0,75-33.645,75-75V265C431,223.645,397.355,190,356,190z" fill="#464646" data-original="#db2e44" class=""/>
</g>
<g xmlns="http://www.w3.org/2000/svg">
</g>
<g xmlns="http://www.w3.org/2000/svg">
</g>
<g xmlns="http://www.w3.org/2000/svg">
</g>
<g xmlns="http://www.w3.org/2000/svg">
</g>
<g xmlns="http://www.w3.org/2000/svg">
</g>
<g xmlns="http://www.w3.org/2000/svg">
</g>
<g xmlns="http://www.w3.org/2000/svg">
</g>
<g xmlns="http://www.w3.org/2000/svg">
</g>
<g xmlns="http://www.w3.org/2000/svg">
</g>
<g xmlns="http://www.w3.org/2000/svg">
</g>
<g xmlns="http://www.w3.org/2000/svg">
</g>
<g xmlns="http://www.w3.org/2000/svg">
</g>
<g xmlns="http://www.w3.org/2000/svg">
</g>
<g xmlns="http://www.w3.org/2000/svg">
</g>
<g xmlns="http://www.w3.org/2000/svg">
</g>
</g></svg>
