<?xml version="1.0" encoding="utf-8"?><svg xml:space="preserve" viewBox="0 0 100 100" y="0" x="0" xmlns="http://www.w3.org/2000/svg" id="圖層_1" version="1.1" width="45px" height="45px" xmlns:xlink="http://www.w3.org/1999/xlink" style="width:100%;height:100%;animation-play-state:paused" ><g class="ldl-scale" style="transform-origin:50% 50% 0px;transform:rotate(0deg) scale(1);animation-play-state:paused" ><path fill="#e0e0e0" d="M63.89 36.144H36.11l1.827-11.969a4.677 4.677 0 0 1 4.623-3.971h14.882a4.677 4.677 0 0 1 4.623 3.971l1.825 11.969z" style="fill:rgb(224, 224, 224);animation-play-state:paused" ></path>
<path fill="#666" d="M76.562 59.07H23.438l4.024-25.249a4.677 4.677 0 0 1 4.618-3.941h35.84a4.677 4.677 0 0 1 4.618 3.941l4.024 25.249z" style="fill:rgb(102, 102, 102);animation-play-state:paused" ></path>
<path fill="#77a4bd" d="M90.181 73.425c-2.593 1.658-5.711 2.294-8.711 1.917a12.947 12.947 0 0 1-5.364-1.917l-.001.002-.1-.063-1.145-.667-1.239.747-.012-.019c-4.225 2.701-9.843 2.702-14.069.003l-.136-.083-1.136-.636-1.208.751-.022-.035c-4.226 2.702-9.847 2.702-14.075 0l-.001.002-.1-.063-1.145-.667-1.239.747-.012-.019c-4.225 2.701-9.843 2.702-14.069.003l-.136-.083-1.146-.634-1.209.73-.01-.016a12.957 12.957 0 0 1-5.364 1.918c-2.999.377-6.118-.26-8.711-1.918L7.5 77.053a17.33 17.33 0 0 0 9.357 2.744c.857 0 1.707-.071 2.547-.196a17.32 17.32 0 0 0 5.739-1.915 17.31 17.31 0 0 0 16.572 0 17.31 17.31 0 0 0 16.573 0 17.31 17.31 0 0 0 16.572 0 17.312 17.312 0 0 0 5.739 1.915c.84.125 1.69.196 2.547.196a17.33 17.33 0 0 0 9.357-2.744l-2.322-3.628z" style="fill:rgb(119, 164, 189);animation-play-state:paused" ></path>
<path d="M84.522 60.459l1.725-8.407L50 39.369 13.753 52.052l1.725 8.407L50 54.636z" fill="#c33737" style="fill:rgb(195, 55, 55);animation-play-state:paused" ></path>
<path fill="#333" d="M23.894 73.425l.01.016 1.209-.73 1.146.634.136.083c4.226 2.699 9.844 2.698 14.069-.003l.012.019 1.239-.747 1.145.667.1.063.001-.002c4.228 2.702 9.849 2.702 14.075 0l.022.035 1.208-.751 1.136.636.136.083c4.226 2.699 9.844 2.698 14.069-.003l.012.019 1.239-.747 1.145.667.1.063.001-.002a12.942 12.942 0 0 0 5.364 1.917l3.053-14.883L50 54.636l-34.522 5.823 3.053 14.884a12.925 12.925 0 0 0 5.363-1.918z" style="fill:rgb(51, 51, 51);animation-play-state:paused" ></path>
<metadata xmlns:d="https://loading.io/stock/" style="animation-play-state:paused" ><d:name style="animation-play-state:paused" >ship</d:name>
<d:tags style="animation-play-state:paused" >freighter,bulk carrier,cargo,goods,commodity,cargolux,ship,business</d:tags>
<d:license style="animation-play-state:paused" >pro</d:license>
<d:slug style="animation-play-state:paused" >o5uju5</d:slug></metadata></g><!-- generated by https://loading.io/ --></svg>